<?xml version="1.0" encoding="UTF-8"?>
<svg width="61px" height="62px" viewBox="0 0 61 62" version="1.1" xmlns="http://www.w3.org/2000/svg" xmlns:xlink="http://www.w3.org/1999/xlink">
    <!-- Generator: Sketch 46.2 (44496) - http://www.bohemiancoding.com/sketch -->
    <title>open-book</title>
    <desc>Created with Sketch.</desc>
    <defs></defs>
    <g id="Welcome" stroke="none" stroke-width="1" fill="none" fill-rule="evenodd">
        <g id="Association" transform="translate(-723.000000, -4315.000000)" fill-rule="nonzero" fill="#2ECC71">
            <g id="Group-3" transform="translate(690.000000, 4087.266033)">
                <g id="Group">
                    <g id="donation-2" transform="translate(27.000000, 120.000000)">
                        <g id="open-book" transform="translate(6.000000, 108.000000)">
                            <path d="M35.1086407,28.4540629 C35.2855829,28.8000926 35.6375925,29 36.0015546,29 C36.1535374,29 36.3095044,28.9649635 36.4545736,28.8910235 C36.5135153,28.8610257 42.3992473,25.8712029 45.3020377,24.954277 C45.8280601,24.7872969 46.1199562,24.2253063 45.9529743,23.6994069 C45.7869298,23.1733902 45.2290344,22.8804427 44.6980905,23.0464854 C41.6402706,24.0134467 35.7946141,26.9832318 35.5466606,27.1091993 C35.0546206,27.3591421 34.8586951,27.961208 35.1086407,28.4540629 Z" id="Shape"></path>
                            <path d="M36.001535,17 C36.1535181,17 36.3094854,16.9649635 36.4545549,16.8910235 C36.5134967,16.8610257 42.3992403,13.8712029 45.3020364,12.954277 C45.8280597,12.7872969 46.1199564,12.2253063 45.9529742,11.6994069 C45.7869294,11.1733902 45.2290329,10.8804427 44.6980879,11.0464854 C41.640262,12.0134467 35.7945941,14.9832318 35.5466401,15.1091993 C35.0547163,15.3591421 34.8586733,15.9610908 35.1086193,16.4540629 C35.2855619,16.7999754 35.6375722,17 36.001535,17 Z" id="Shape"></path>
                            <path d="M35.1086407,22.4540629 C35.2855829,22.8000926 35.6375925,23 36.0015546,23 C36.1535374,23 36.3095044,22.9649635 36.4545736,22.8910235 C36.5135153,22.8610257 42.3992473,19.8712029 45.3020377,18.954277 C45.8280601,18.7872969 46.1199562,18.2253063 45.9529743,17.6994069 C45.7869298,17.1733902 45.2290344,16.8804427 44.6980905,17.0464854 C41.6402706,18.0134467 35.7946141,20.9832318 35.5466606,21.1091993 C35.0546206,21.3591421 34.8586951,21.961208 35.1086407,22.4540629 Z" id="Shape"></path>
                            <path d="M35.1086407,34.4540629 C35.2855829,34.8000926 35.6375925,35 36.0015546,35 C36.1535374,35 36.3095044,34.9649635 36.4545736,34.8910235 C36.5135153,34.8610257 42.3992473,31.8712029 45.3020377,30.954277 C45.8280601,30.7872969 46.1199562,30.2253063 45.9529743,29.6994069 C45.7869298,29.1733902 45.2290344,28.8804427 44.6980905,29.0464854 C41.6402706,30.0134467 35.7946141,32.9832318 35.5466606,33.1091993 C35.0546206,33.3591421 34.8586951,33.961208 35.1086407,34.4540629 Z" id="Shape"></path>
                            <path d="M25.1758767,18.5541783 C18.5896714,17.1028593 11.1052734,18.9518385 10.7906684,19.030948 C10.2222046,19.1741433 9.88410118,19.7229801 10.0365915,20.2578496 C10.1645833,20.7055108 10.5954309,21 11.0659009,21 C11.157645,21 11.2503891,20.9889669 11.3432582,20.9659618 C11.4147536,20.9469473 18.6206694,19.1671009 24.6896577,20.5042158 C25.2602463,20.629453 25.8373345,20.2958785 25.971701,19.7570183 C26.1059424,19.2192146 25.7497151,18.6803544 25.1758767,18.5541783 Z" id="Shape"></path>
                            <path d="M25.1758767,24.5538032 C18.5896714,23.1033181 11.1052734,24.9515244 10.7906684,25.030646 C10.2222046,25.1738632 9.88410118,25.7229017 10.0365915,26.2577357 C10.1645833,26.7054656 10.5954309,27 11.0659009,27 C11.157645,27 11.2503891,26.9889652 11.3432582,26.9659566 C11.4147536,26.9469392 18.6206694,25.1668198 24.6896577,26.5041398 C25.2602463,26.6293961 25.8373345,26.2957705 25.971701,25.7568277 C26.1059424,25.2189414 25.7497151,24.6799987 25.1758767,24.5538032 Z" id="Shape"></path>
                            <path d="M35.1086407,40.454062 C35.2855829,40.8000922 35.6375925,41 36.0015546,41 C36.1535374,41 36.3095044,40.9649634 36.4545736,40.8910233 C36.5135153,40.8610254 42.3992473,37.8711976 45.3020377,36.9542701 C45.8280601,36.7872897 46.1199562,36.2252982 45.9529743,35.6993978 C45.7869298,35.1734975 45.2290344,34.8804322 44.6980905,35.0464752 C41.6402706,36.0134381 35.7946141,38.9832284 35.5466606,39.109196 C35.0546206,39.3591393 34.8586951,39.9612062 35.1086407,40.454062 Z" id="Shape"></path>
                            <path d="M25.1758767,31.5537542 C18.5896714,30.1038663 11.1052734,31.9502556 10.7906684,32.0304008 C10.2222046,32.173559 9.88410118,32.7223714 10.0365915,33.2569853 C10.1645833,33.7045308 10.5954309,34 11.0659009,34 C11.157645,34 11.2503891,33.988031 11.3432582,33.9649145 C11.4147536,33.945905 18.6206694,32.1665184 24.6896577,33.5032878 C25.2602463,33.6284926 25.8373345,33.2950043 25.971701,32.7562834 C26.1059424,32.2186186 25.7497151,31.6798977 25.1758767,31.5537542 Z" id="Shape"></path>
                            <path d="M25.1758767,42.5539832 C18.5896714,41.1031751 11.1052734,42.9515035 10.7906684,43.0305852 C10.2222046,43.17373 9.88410118,43.722491 10.0365915,44.2570548 C10.1645833,44.7045584 10.5954309,45 11.0659009,45 C11.157645,45 11.2503891,44.9880322 11.3432582,44.9649178 C11.4147536,44.94591 18.6206694,43.1666901 24.6896577,44.5033343 C25.2602463,44.6274714 25.8373345,44.2950703 25.971701,43.7563999 C26.1059424,43.2187854 25.7497151,42.680115 25.1758767,42.5539832 Z" id="Shape"></path>
                            <path d="M25.1758767,36.5541292 C18.5896714,35.1034077 11.1052734,36.9505698 10.7906684,37.0307027 C10.2222046,37.173839 9.88410118,37.7225672 10.0365915,38.2570992 C10.1645833,38.7045761 10.5954309,39 11.0659009,39 C11.157645,39 11.2503891,38.9880329 11.3432582,38.9649199 C11.4147536,38.9459133 18.6206694,37.1667995 24.6896577,38.503364 C25.2602463,38.6285496 25.8373345,38.2951124 25.971701,37.7564741 C26.1059424,37.2188917 25.7497151,36.6802534 25.1758767,36.5541292 Z" id="Shape"></path>
                            <path d="M59.9832559,15.2503334 C59.4210324,15.2503334 58.9666309,15.7058035 58.9666309,16.2669503 L58.9666309,55.9165581 C58.9666309,57.5980922 57.5981844,58.9665279 55.9166369,58.9665279 L31.5166845,58.9665279 L31.5166845,56.6272249 C32.9990293,56.10873 36.8602503,54.8999412 40.6666667,54.8999412 C49.5228486,54.8999412 55.5364599,56.8610956 55.5963875,56.8813493 C55.90234,56.9829753 56.2440347,56.9322219 56.5113857,56.7410031 C56.7767114,56.5499034 56.9332618,56.242881 56.9332618,55.916439 L56.9332618,11.1837466 C56.9332618,10.7069506 56.6028855,10.2941324 56.1371657,10.1914342 C56.1371657,10.1914342 55.3401165,10.013559 53.9777461,9.76336614 C53.4276749,9.6617402 52.8960705,10.0277366 52.7943246,10.5787565 C52.6926979,11.1318018 53.0576249,11.6614958 53.6097215,11.7631218 C54.1292927,11.8586716 54.5643934,11.9430223 54.8998928,12.010217 L54.8998928,54.5653976 C52.596075,53.9614798 47.4803057,52.8665883 40.6665475,52.8665883 C36.2369077,52.8665883 31.8856623,54.3214 30.539495,54.8145182 C29.3428489,54.2858965 25.7256275,52.8665883 21.3498392,52.8665883 C14.3470052,52.8665883 8.57846567,54.0215261 6.09986895,54.6081687 L6.09986895,11.9705435 C8.13014037,11.4713493 14.1264763,10.1670106 21.3498392,10.1670106 C25.0566542,10.1670106 28.2356773,11.3208761 29.4831963,11.8424686 L29.4831963,51.8499714 C29.4831963,52.2159677 29.6803737,52.554562 29.9985977,52.7344626 C30.3168216,52.9154354 30.7092701,52.9103124 31.0234433,52.7212381 C31.1241169,52.661311 41.1971988,46.6446498 50.1377322,43.6648531 C50.5535321,43.5255791 50.8331546,43.1382567 50.8331546,42.7000619 L50.8331546,1.01710109 C50.8331546,0.683629779 50.6694557,0.371484429 50.3949563,0.181457011 C50.1224822,-0.0086895456 49.7728051,-0.0524137225 49.4586319,0.0645812141 C41.3243216,3.11550416 33.0935076,8.23742811 33.0110625,8.28830066 C32.5352158,8.58614927 32.3898645,9.21341846 32.6877155,9.68926141 C32.9846133,10.1651044 33.6118875,10.3104545 34.0886873,10.0126059 C34.1638649,9.96483095 41.3243216,5.50984962 48.7997855,2.50360397 L48.7997855,41.972239 C41.8599768,44.3837405 34.6142156,48.3212992 31.5164463,50.0840865 L31.5164463,11.1837466 C31.5164463,10.7984497 31.2988959,10.4466309 30.9542227,10.2738787 C30.7793246,10.1875026 26.6131043,8.13377679 21.3498392,8.13377679 C12.1632809,8.13377679 5.10051933,10.1213802 4.80362148,10.206684 C4.3674485,10.3307082 4.06649987,10.7303019 4.06649987,11.1837466 L4.06649987,55.9166772 C4.06649987,56.2348987 4.21697419,56.5358449 4.47014752,56.7280169 C4.64909639,56.8632401 4.86462136,56.9334133 5.08324398,56.9334133 C5.17676919,56.9334133 5.27029439,56.9201888 5.36179422,56.8937398 C5.43196791,56.8744392 12.4622042,54.9000603 21.3498392,54.9000603 C25.0667811,54.9000603 28.2428257,56.0570235 29.4831963,56.5764715 L29.4831963,58.9666471 L5.08324398,58.9666471 C3.40169648,58.9666471 2.03324994,57.5982114 2.03324994,55.9166772 L2.03324994,16.2670694 C2.03324994,15.7059226 1.57777622,15.2504525 1.01662497,15.2504525 C0.45547372,15.2504525 0,15.7059226 0,16.2670694 L0,55.9166772 C0,58.7195519 2.28034711,61 5.08336312,61 L55.9166369,61 C58.7195338,61 61,58.719671 61,55.9166772 L61,16.2670694 C60.9998809,15.7058035 60.5454794,15.2503334 59.9832559,15.2503334 Z" id="Shape"></path>
                        </g>
                    </g>
                </g>
            </g>
        </g>
    </g>
</svg>