<?xml version="1.0" encoding="UTF-8"?>
<svg width="71px" height="61px" viewBox="0 0 71 61" version="1.1" xmlns="http://www.w3.org/2000/svg" xmlns:xlink="http://www.w3.org/1999/xlink">
    <!-- Generator: Sketch 46.2 (44496) - http://www.bohemiancoding.com/sketch -->
    <title>water</title>
    <desc>Created with Sketch.</desc>
    <defs></defs>
    <g id="Welcome" stroke="none" stroke-width="1" fill="none" fill-rule="evenodd">
        <g id="Association" transform="translate(-717.000000, -4207.000000)" fill-rule="nonzero" fill="#2ECC71">
            <g id="Group-3" transform="translate(690.000000, 4087.266033)">
                <g id="Group">
                    <g id="donation-2" transform="translate(27.000000, 120.000000)">
                        <g id="water">
                            <path d="M41.7838873,49.6345849 C42.143571,49.881833 42.5670846,50 42.9845413,50 C43.5848684,50 44.1772749,49.758209 44.5688735,49.2943563 C46.1592626,47.4118703 47,45.1641791 47,42.7909748 C47,41.8024021 46.1115067,41 45.0121884,41 C43.9128701,41 43.0243768,41.8024021 43.0243768,42.7909748 C43.0243768,44.3724813 42.4657488,45.8715019 41.406266,47.1253731 C40.742109,47.9116138 40.9091383,49.0364039 41.7838873,49.6345849 Z" id="Shape"></path>
                            <path d="M35.5,60 C45.1495787,60 53,52.0631191 53,42.3077282 C53,29.2791851 37.3305345,15.0456277 36.6619772,14.4458159 C35.9987519,13.8513947 35.0012481,13.8513947 34.3380228,14.4458159 C33.6694655,15.0454204 18,29.2789778 18,42.3077282 C18,52.0631191 25.8506264,60 35.5,60 Z M35.5,18.1983199 C39.0507365,21.6819142 49.500123,32.7484735 49.500123,42.3077282 C49.500123,50.1119165 43.2193759,56.46167 35.5,56.46167 C27.7806241,56.46167 21.499877,50.1119165 21.499877,42.3077282 C21.500082,32.762572 31.9511092,21.6854389 35.5,18.1983199 Z" id="Shape"></path>
                            <path d="M59.6649128,21 C59.7931713,21 59.9231867,20.9850393 60.0514452,20.9553123 C61.2042096,20.6817458 62.6451164,19.4466162 62.9600036,18.0438105 C63.1583454,17.1502506 62.6002161,16.2382326 61.7022117,16.0392751 C60.8077211,15.8469236 59.9196728,16.3775417 59.7215261,17.2711017 C59.6615941,17.4086621 59.395121,17.667268 59.2416794,17.738574 C58.3704198,17.9657042 57.8357167,18.8478008 58.0455765,19.7265944 C58.2288865,20.4876456 58.9117604,21 59.6649128,21 Z" id="Shape"></path>
                            <path d="M60.5,28 C66.290791,28 71,23.290814 71,17.5000513 C71,8.01851553 61.9769727,0.691314984 61.5936816,0.383289144 C60.9548633,-0.127763048 60.0449316,-0.127763048 59.4061133,0.383289144 C59.0230273,0.691314984 50,8.01851553 50,17.5000513 C50,23.290814 54.709209,28 60.5,28 Z M60.5,4.09867139 C62.7119727,6.21096577 67.4999316,11.481858 67.4999316,17.5000513 C67.4999316,21.3606281 64.3603906,24.4999487 60.5,24.4999487 C56.6394043,24.4999487 53.5000684,21.360423 53.5000684,17.5000513 C53.5000684,11.481858 58.2880273,6.21076069 60.5,4.09867139 Z" id="Shape"></path>
                            <path d="M10.6649128,21 C10.7931713,21 10.9231867,20.9850393 11.0514452,20.9553123 C12.2042096,20.6817458 13.6451164,19.4466162 13.9600036,18.0438105 C14.1583454,17.1502506 13.6002161,16.2382326 12.7022117,16.0392751 C11.8110398,15.8469236 10.9196728,16.3775417 10.7215261,17.2711017 C10.6615941,17.4086621 10.3949258,17.667268 10.2416794,17.738574 C9.37041983,17.9657042 8.83571673,18.8478008 9.04557647,19.7265944 C9.22888651,20.4876456 9.91195557,21 10.6649128,21 Z" id="Shape"></path>
                            <path d="M10.5001025,28 C16.290837,28 21,23.290814 21,17.5000513 C21,8.01851553 11.9770608,0.691314984 11.5937735,0.383289144 C10.9549614,-0.127763048 10.0450386,-0.127763048 9.4062265,0.383289144 C9.02293923,0.691314984 0,8.01851553 0,17.5000513 C0.000205076122,23.290814 4.70936807,28 10.5001025,28 Z M10.5001025,4.09867139 C12.7120536,6.21076069 17.4999658,11.481858 17.4999658,17.5000513 C17.4999658,21.3606281 14.3604555,24.4999487 10.5001025,24.4999487 C6.63974961,24.4999487 3.50023926,21.360423 3.50023926,17.5000513 C3.50003418,11.481858 8.28815148,6.21076069 10.5001025,4.09867139 Z" id="Shape"></path>
                        </g>
                    </g>
                </g>
            </g>
        </g>
    </g>
</svg>